<svg xmlns="http://www.w3.org/2000/svg" xmlns:xlink="http://www.w3.org/1999/xlink" width="1080" zoomAndPan="magnify" viewBox="0 0 810 425.249996" height="567" preserveAspectRatio="xMidYMid meet" version="1.0"><defs><g/><clipPath id="3c2381faba"><path d="M 391 264 L 809.285156 264 L 809.285156 268 L 391 268 Z M 391 264 " clip-rule="nonzero"/></clipPath><clipPath id="c6d00cbd25"><path d="M 804 259 L 809.285156 259 L 809.285156 272 L 804 272 Z M 804 259 " clip-rule="nonzero"/></clipPath></defs><g fill="#000000" fill-opacity="1"><g transform="translate(4.643614, 293.296143)"><g><path d="M -3.015625 0 L 89.59375 -153.78125 L 0.859375 -302.8125 L 76.671875 -302.8125 L 132.234375 -195.5625 L 134.828125 -195.5625 L 189.53125 -302.8125 L 265.34375 -302.8125 L 177.03125 -153.78125 L 269.65625 0 L 192.546875 0 L 135.25 -109.84375 L 132.671875 -109.84375 L 74.09375 0 Z M -3.015625 0 "/></g></g></g><g fill="#000000" fill-opacity="1"><g transform="translate(103.835115, 414.842338)"><g><path d="M 93.6875 0 L 95.03125 -113.40625 L -1.796875 -315.125 L 73.0625 -315.125 L 128.203125 -170.78125 L 130.890625 -170.78125 L 186.03125 -315.125 L 260.875 -315.125 L 164.0625 -113.40625 L 164.953125 0 Z M 93.6875 0 "/></g></g></g><g fill="#000000" fill-opacity="1"><g transform="translate(395.175843, 245.448932)"><g><path d="M 59 -11.484375 C 56.90625 -8.128906 54.773438 -5.585938 52.609375 -3.859375 C 50.441406 -2.140625 47.914062 -0.835938 45.03125 0.046875 C 42.15625 0.929688 38.773438 1.375 34.890625 1.375 C 25.046875 1.375 17.789062 -1.460938 13.125 -7.140625 C 8.457031 -12.816406 6.125 -21.382812 6.125 -32.84375 C 6.125 -44.269531 8.441406 -52.828125 13.078125 -58.515625 C 17.710938 -64.210938 24.851562 -67.0625 34.5 -67.0625 C 38.332031 -67.0625 41.75 -66.585938 44.75 -65.640625 C 47.757812 -64.691406 50.300781 -63.382812 52.375 -61.71875 C 54.445312 -60.0625 56.335938 -57.726562 58.046875 -54.71875 L 50.828125 -49.984375 C 49.441406 -52.316406 48.035156 -54.09375 46.609375 -55.3125 C 45.179688 -56.53125 43.46875 -57.492188 41.46875 -58.203125 C 39.476562 -58.921875 37.15625 -59.28125 34.5 -59.28125 C 27.925781 -59.28125 23.09375 -57.085938 20 -52.703125 C 16.914062 -48.328125 15.375 -41.707031 15.375 -32.84375 C 15.375 -24.113281 16.890625 -17.523438 19.921875 -13.078125 C 22.960938 -8.628906 27.851562 -6.40625 34.59375 -6.40625 C 38.332031 -6.40625 41.578125 -7.140625 44.328125 -8.609375 C 47.078125 -10.085938 49.546875 -12.628906 51.734375 -16.234375 Z M 59 -11.484375 "/></g></g></g><g fill="#000000" fill-opacity="1"><g transform="translate(457.870747, 245.448932)"><g><path d="M 36.359375 0 L 36.359375 -6.21875 C 33.828125 -4 31.28125 -2.160156 28.71875 -0.703125 C 26.15625 0.742188 23.257812 1.46875 20.03125 1.46875 C 15.28125 1.46875 11.613281 0.0195312 9.03125 -2.875 C 6.457031 -5.769531 5.171875 -9.476562 5.171875 -14 C 5.171875 -17.414062 5.84375 -20.253906 7.1875 -22.515625 C 8.53125 -24.785156 10.472656 -26.578125 13.015625 -27.890625 C 15.566406 -29.203125 19.265625 -30.140625 24.109375 -30.703125 L 36.359375 -31.796875 L 36.359375 -34.21875 C 36.359375 -38.050781 35.289062 -40.660156 33.15625 -42.046875 C 31.019531 -43.441406 28.066406 -44.140625 24.296875 -44.140625 C 20.941406 -44.140625 18.351562 -43.550781 16.53125 -42.375 C 14.71875 -41.207031 13.414062 -39.945312 12.625 -38.59375 L 5.9375 -42.671875 C 7.457031 -45.421875 9.773438 -47.53125 12.890625 -49 C 16.003906 -50.476562 19.867188 -51.21875 24.484375 -51.21875 C 31.640625 -51.21875 36.765625 -49.914062 39.859375 -47.3125 C 42.960938 -44.71875 44.515625 -40.226562 44.515625 -33.84375 L 44.515625 0 Z M 36.359375 -25.25 L 28.375 -24.484375 C 22.96875 -24.015625 19.15625 -22.960938 16.9375 -21.328125 C 14.726562 -19.703125 13.625 -17.320312 13.625 -14.1875 C 13.625 -11.21875 14.363281 -9.082031 15.84375 -7.78125 C 17.332031 -6.488281 19.566406 -5.84375 22.546875 -5.84375 C 23.773438 -5.84375 24.988281 -6.070312 26.1875 -6.53125 C 27.394531 -6.988281 28.582031 -7.554688 29.75 -8.234375 C 30.925781 -8.910156 32.0625 -9.679688 33.15625 -10.546875 C 34.25 -11.421875 35.316406 -12.269531 36.359375 -13.09375 Z M 36.359375 -25.25 "/></g></g></g><g fill="#000000" fill-opacity="1"><g transform="translate(510.076951, 245.448932)"><g><path d="M 34.984375 -41.71875 C 34.097656 -42.09375 32.832031 -42.28125 31.1875 -42.28125 C 28.75 -42.28125 26.394531 -41.71875 24.125 -40.59375 C 21.863281 -39.476562 19.234375 -37.414062 16.234375 -34.40625 L 16.234375 0 L 8.0625 0 L 8.0625 -49.78125 L 16.234375 -49.78125 L 16.234375 -41.71875 C 18.515625 -44.03125 20.910156 -46.078125 23.421875 -47.859375 C 25.941406 -49.648438 28.734375 -50.546875 31.796875 -50.546875 C 33.859375 -50.546875 35.503906 -50.210938 36.734375 -49.546875 Z M 34.984375 -41.71875 "/></g></g></g><g fill="#000000" fill-opacity="1"><g transform="translate(548.56716, 245.448932)"><g><path d="M 32.9375 0 C 29.769531 0.976562 26.640625 1.46875 23.546875 1.46875 C 18.484375 1.46875 14.847656 0.140625 12.640625 -2.515625 C 10.441406 -5.171875 9.34375 -9.347656 9.34375 -15.046875 L 9.34375 -42.953125 L 2.234375 -42.953125 L 2.234375 -49.78125 L 9.34375 -49.78125 L 9.34375 -63.640625 L 17.515625 -63.640625 L 17.515625 -49.78125 L 30.140625 -49.78125 L 30.140625 -42.953125 L 17.515625 -42.953125 L 17.515625 -16.609375 C 17.515625 -12.585938 17.914062 -9.707031 18.71875 -7.96875 C 19.53125 -6.226562 21.328125 -5.359375 24.109375 -5.359375 C 26.515625 -5.359375 28.742188 -5.800781 30.796875 -6.6875 Z M 32.9375 0 "/></g></g></g><g fill="#000000" fill-opacity="1"><g transform="translate(583.165635, 245.448932)"><g><path d="M 14 -23.921875 C 14 -17.335938 15.117188 -12.644531 17.359375 -9.84375 C 19.609375 -7.039062 23.21875 -5.640625 28.1875 -5.640625 C 30.40625 -5.640625 32.351562 -6.109375 34.03125 -7.046875 C 35.707031 -7.984375 37.320312 -9.492188 38.875 -11.578125 L 45.609375 -7.40625 C 43.710938 -4.550781 41.398438 -2.359375 38.671875 -0.828125 C 35.953125 0.703125 32.269531 1.46875 27.625 1.46875 C 20.21875 1.46875 14.6875 -0.679688 11.03125 -4.984375 C 7.375 -9.285156 5.546875 -15.785156 5.546875 -24.484375 C 5.546875 -33.597656 7.328125 -40.332031 10.890625 -44.6875 C 14.453125 -49.039062 19.820312 -51.21875 27 -51.21875 C 33.457031 -51.21875 38.300781 -49.359375 41.53125 -45.640625 C 44.757812 -41.921875 46.375 -36.203125 46.375 -28.484375 L 46.375 -23.921875 Z M 38.390625 -30.328125 C 38.328125 -34.785156 37.382812 -38.25 35.5625 -40.71875 C 33.75 -43.1875 30.800781 -44.421875 26.71875 -44.421875 C 22.832031 -44.421875 19.914062 -43.304688 17.96875 -41.078125 C 16.019531 -38.847656 14.726562 -35.265625 14.09375 -30.328125 Z M 38.390625 -30.328125 "/></g></g></g><g fill="#000000" fill-opacity="1"><g transform="translate(634.470095, 245.448932)"><g><path d="M 42.09375 -13.4375 C 42.09375 -8.78125 40.445312 -5.128906 37.15625 -2.484375 C 33.875 0.148438 29.191406 1.46875 23.109375 1.46875 C 18.960938 1.46875 15.242188 0.6875 11.953125 -0.875 C 8.671875 -2.445312 6.269531 -4.65625 4.75 -7.5 L 11.296875 -11.484375 C 13.796875 -7.460938 17.8125 -5.453125 23.34375 -5.453125 C 26.957031 -5.453125 29.65625 -6.140625 31.4375 -7.515625 C 33.226562 -8.898438 34.125 -10.757812 34.125 -13.09375 C 34.125 -14.488281 33.804688 -15.617188 33.171875 -16.484375 C 32.546875 -17.359375 31.566406 -18.117188 30.234375 -18.765625 C 28.898438 -19.421875 26.175781 -20.300781 22.0625 -21.40625 C 16.144531 -22.769531 11.976562 -24.648438 9.5625 -27.046875 C 7.144531 -29.453125 5.9375 -32.648438 5.9375 -36.640625 C 5.9375 -41.035156 7.515625 -44.5625 10.671875 -47.21875 C 13.835938 -49.882812 18.222656 -51.21875 23.828125 -51.21875 C 28.160156 -51.21875 31.796875 -50.363281 34.734375 -48.65625 C 37.679688 -46.945312 39.835938 -44.890625 41.203125 -42.484375 L 34.6875 -38.484375 C 32.09375 -42.378906 28.410156 -44.328125 23.640625 -44.328125 C 20.910156 -44.328125 18.601562 -43.722656 16.71875 -42.515625 C 14.84375 -41.316406 13.90625 -39.453125 13.90625 -36.921875 C 13.90625 -34.679688 14.726562 -33.050781 16.375 -32.03125 C 18.019531 -31.019531 20.597656 -30.085938 24.109375 -29.234375 C 29.742188 -27.773438 33.632812 -26.410156 35.78125 -25.140625 C 37.9375 -23.878906 39.523438 -22.320312 40.546875 -20.46875 C 41.578125 -18.625 42.09375 -16.28125 42.09375 -13.4375 Z M 42.09375 -13.4375 "/></g></g></g><g fill="#000000" fill-opacity="1"><g transform="translate(681.503125, 245.448932)"><g><path d="M 17.515625 -62.40625 C 17.515625 -60.507812 17.085938 -59.222656 16.234375 -58.546875 C 15.378906 -57.867188 14.019531 -57.53125 12.15625 -57.53125 C 10.15625 -57.53125 8.773438 -57.957031 8.015625 -58.8125 C 7.253906 -59.664062 6.875 -60.863281 6.875 -62.40625 C 6.875 -64.082031 7.285156 -65.304688 8.109375 -66.078125 C 8.929688 -66.859375 10.28125 -67.25 12.15625 -67.25 C 14.082031 -67.25 15.457031 -66.878906 16.28125 -66.140625 C 17.101562 -65.398438 17.515625 -64.15625 17.515625 -62.40625 Z M 8.0625 0 L 8.0625 -49.78125 L 16.234375 -49.78125 L 16.234375 0 Z M 8.0625 0 "/></g></g></g><g fill="#000000" fill-opacity="1"><g transform="translate(705.80274, 245.448932)"><g><path d="M 36.359375 0 L 36.359375 -6.21875 C 33.828125 -4 31.28125 -2.160156 28.71875 -0.703125 C 26.15625 0.742188 23.257812 1.46875 20.03125 1.46875 C 15.28125 1.46875 11.613281 0.0195312 9.03125 -2.875 C 6.457031 -5.769531 5.171875 -9.476562 5.171875 -14 C 5.171875 -17.414062 5.84375 -20.253906 7.1875 -22.515625 C 8.53125 -24.785156 10.472656 -26.578125 13.015625 -27.890625 C 15.566406 -29.203125 19.265625 -30.140625 24.109375 -30.703125 L 36.359375 -31.796875 L 36.359375 -34.21875 C 36.359375 -38.050781 35.289062 -40.660156 33.15625 -42.046875 C 31.019531 -43.441406 28.066406 -44.140625 24.296875 -44.140625 C 20.941406 -44.140625 18.351562 -43.550781 16.53125 -42.375 C 14.71875 -41.207031 13.414062 -39.945312 12.625 -38.59375 L 5.9375 -42.671875 C 7.457031 -45.421875 9.773438 -47.53125 12.890625 -49 C 16.003906 -50.476562 19.867188 -51.21875 24.484375 -51.21875 C 31.640625 -51.21875 36.765625 -49.914062 39.859375 -47.3125 C 42.960938 -44.71875 44.515625 -40.226562 44.515625 -33.84375 L 44.515625 0 Z M 36.359375 -25.25 L 28.375 -24.484375 C 22.96875 -24.015625 19.15625 -22.960938 16.9375 -21.328125 C 14.726562 -19.703125 13.625 -17.320312 13.625 -14.1875 C 13.625 -11.21875 14.363281 -9.082031 15.84375 -7.78125 C 17.332031 -6.488281 19.566406 -5.84375 22.546875 -5.84375 C 23.773438 -5.84375 24.988281 -6.070312 26.1875 -6.53125 C 27.394531 -6.988281 28.582031 -7.554688 29.75 -8.234375 C 30.925781 -8.910156 32.0625 -9.679688 33.15625 -10.546875 C 34.25 -11.421875 35.316406 -12.269531 36.359375 -13.09375 Z M 36.359375 -25.25 "/></g></g></g><g fill="#000000" fill-opacity="1"><g transform="translate(758.008944, 245.448932)"><g><path d="M 39.34375 0 L 39.34375 -29.328125 C 39.34375 -34.078125 39.101562 -37.242188 38.625 -38.828125 C 38.15625 -40.410156 37.378906 -41.554688 36.296875 -42.265625 C 35.222656 -42.972656 33.660156 -43.328125 31.609375 -43.328125 C 29.523438 -43.328125 27.085938 -42.535156 24.296875 -40.953125 C 21.515625 -39.378906 18.828125 -37.453125 16.234375 -35.171875 L 16.234375 0 L 8.0625 0 L 8.0625 -49.78125 L 16.234375 -49.78125 L 16.234375 -42.390625 C 18.546875 -44.691406 21.234375 -46.738281 24.296875 -48.53125 C 27.367188 -50.320312 30.457031 -51.21875 33.5625 -51.21875 C 38.363281 -51.21875 41.890625 -49.847656 44.140625 -47.109375 C 46.390625 -44.367188 47.515625 -39.738281 47.515625 -33.21875 L 47.515625 0 Z M 39.34375 0 "/></g></g></g><path stroke-linecap="butt" transform="matrix(0.000000000000001704, -0.746797, 0.74868, 0.000000000000001708, 393.660267, 265.797859)" fill="none" stroke-linejoin="miter" d="M 0.00131699 1.998162 L 153.401128 1.998162 " stroke="#000000" stroke-width="4" stroke-opacity="1" stroke-miterlimit="4"/><path stroke-linecap="round" transform="matrix(0.000000000000001704, -0.746797, 0.74868, 0.000000000000001708, 393.660267, 265.797859)" fill="none" stroke-linejoin="round" d="M 145.403436 -4.001986 L 153.401128 1.998162 L 145.403436 7.998309 " stroke="#000000" stroke-width="4" stroke-opacity="1" stroke-miterlimit="4"/><g clip-path="url(#3c2381faba)"><path stroke-linecap="butt" transform="matrix(0.74893, 0, 0, 0.74868, 393.338977, 264.304476)" fill="none" stroke-linejoin="miter" d="M 0.00115717 1.998592 L 558.82453 1.998592 " stroke="#000000" stroke-width="4" stroke-opacity="1" stroke-miterlimit="4"/></g><g clip-path="url(#c6d00cbd25)"><path stroke-linecap="round" transform="matrix(0.74893, 0, 0, 0.74868, 393.338977, 264.304476)" fill="none" stroke-linejoin="round" d="M 550.823531 -4.001555 L 558.82453 1.998592 L 550.823531 7.998739 " stroke="#000000" stroke-width="4" stroke-opacity="1" stroke-miterlimit="4"/></g></svg>